inDegrees=no
num_controls=7
num_derivatives=13
num_iterations=57
num_multipliers=7
num_parameters=0
num_slacks=7
num_states=26
objective=0.374235
objective_accelerations=0.030569
objective_balance=0.004697
objective_effort=0.062744
objective_height=0.270458
objective_ligament=0.005767
solver_duration=794.894539
status=Solve_Succeeded
success=true
DataType=double
version=3
OpenSimVersion=4.5
endheader
time	/jointset/ground_pelvis/pelvis_tilt/value	/jointset/ground_pelvis/pelvis_tx/value	/jointset/ground_pelvis/pelvis_ty/value	/jointset/hip_l/hip_flexion_l/value	/jointset/hip_l/hip_adduction_l/value	/jointset/hip_l/hip_rotation_l/value	/jointset/back/lumbar_extension/value	/jointset/patellofemoral_l/patellar_flexion_l/value	/jointset/knee_l/knee_flexion_l/value	/jointset/knee_l/knee_adduction_l/value	/jointset/knee_l/knee_rotation_l/value	/jointset/ankle_l/ankle_angle_l/value	/jointset/subtalar_l/subtalar_angle_l/value	/jointset/ground_pelvis/pelvis_tilt/speed	/jointset/ground_pelvis/pelvis_tx/speed	/jointset/ground_pelvis/pelvis_ty/speed	/jointset/hip_l/hip_flexion_l/speed	/jointset/hip_l/hip_adduction_l/speed	/jointset/hip_l/hip_rotation_l/speed	/jointset/back/lumbar_extension/speed	/jointset/patellofemoral_l/patellar_flexion_l/speed	/jointset/knee_l/knee_flexion_l/speed	/jointset/knee_l/knee_adduction_l/speed	/jointset/knee_l/knee_rotation_l/speed	/jointset/ankle_l/ankle_angle_l/speed	/jointset/subtalar_l/subtalar_angle_l/speed	/forceset/tau_hip_flexion_l	/forceset/tau_hip_adduction_l	/forceset/tau_hip_rotation_l	/forceset/tau_knee_flexion_l	/forceset/tau_ankle_angle_l	/forceset/tau_subtalar_angle_l	/forceset/tau_lumbar_extension	lambda_cid13_p0	lambda_cid13_p1	lambda_cid13_p2	lambda_cid13_p3	lambda_cid13_p4	lambda_cid13_p5	lambda_cid14_p0	/jointset/ground_pelvis/pelvis_tilt/accel	/jointset/ground_pelvis/pelvis_tx/accel	/jointset/ground_pelvis/pelvis_ty/accel	/jointset/hip_l/hip_flexion_l/accel	/jointset/hip_l/hip_adduction_l/accel	/jointset/hip_l/hip_rotation_l/accel	/jointset/back/lumbar_extension/accel	/jointset/patellofemoral_l/patellar_flexion_l/accel	/jointset/knee_l/knee_flexion_l/accel	/jointset/knee_l/knee_adduction_l/accel	/jointset/knee_l/knee_rotation_l/accel	/jointset/ankle_l/ankle_angle_l/accel	/jointset/subtalar_l/subtalar_angle_l/accel	gamma_cid13_p0	gamma_cid13_p1	gamma_cid13_p2	gamma_cid13_p3	gamma_cid13_p4	gamma_cid13_p5	gamma_cid14_p0
1.5	-0.02451006086195223	-0.06779816919134353	0.5990009124646225	1.491395524082447	-0.3150286613307416	0.0188204485050182	-0.9395751930606204	1.675799127162222	1.675799127162241	0.1097964081211115	-0.1745140855237371	0.3343794562149252	0.1103912051841611	0.271514054997644	0.07226302487557776	1.070340902683349	-3.2546553139163	-0.01616307975780698	-0.562772237429917	0.304638254563328	-2.868412799632689	-2.868412799632729	-0.5237837007882823	0.0001718859260108526	-0.06274186044796261	-0.04500568727830478	-0.3718126914943013	-0.006564074491931987	-0.03251503275105017	-0.510384135739236	0.09996332867501699	0.03973070512873717	0.4722635762633384	-22.54520556578103	-7.47127410679549	-5.929604843578531	-0.4539520878902805	-867.9110521868721	-80.29008010864254	-0.0410180656708496	1.436585496979912	1.045388827002152	2.145500036331903	-6.395434135714383	0.6303730395774824	-1.680142665087615	3.068288974948183	-9.508036369923531	-9.508036369923211	-1.449610856715435	0.03664544669982255	-5.268031883843809	-1.780536047869292	-5.340001030922238e-07	1.697187004572271e-06	2.912102956020617e-06	1.232104783304145e-06	2.744064137403695e-07	3.777028421398881e-06	-2.552571388575247e-07
1.51	-0.02172270573248719	-0.06702190587707432	0.6098078862452687	1.458534990587622	-0.3151593142150245	0.01310440366444179	-0.9363721734475506	1.646643297812541	1.646643297812573	0.1044914641063206	-0.1745120338393756	0.3334867135616711	0.1098506123471877	0.2859467270699939	0.08311045387018019	1.090701350445381	-3.316940966454902	-0.009947542767752235	-0.5804915056924991	0.3363032630201918	-2.962462449681123	-2.962462449681146	-0.5370147658302451	0.0002292427794224705	-0.1159759377053647	-0.06314268982277872	-0.3650118100896312	-0.005005791717981428	-0.03082349507542651	-0.5006960979561834	0.09872405256489408	0.04092124007326518	0.4656912570748589	-22.03505459887567	-8.444837482599784	-5.354968664502445	-2.193921869029201	-856.3112786544907	-80.74875931681748	-0.04136115661429311	1.445031764796349	1.122834742406933	1.928508501282656	-6.068632154119372	0.6195175588295861	-1.826193264659852	3.26624602648914	-9.309751855088836	-9.309751855086533	-1.231396424202133	-0.01005621703544209	-5.37645731243889	-1.835653856179736	-6.272526517890489e-07	2.278206070224922e-06	3.776278933214774e-06	1.383911271586403e-06	3.13755397878351e-07	5.145948860390845e-06	-3.652212003968045e-07
1.52	-0.01879133914181079	-0.06613348531151558	0.6208079027745639	1.425066900299175	-0.3152273370233846	0.007209491269675276	-0.9328423759008255	1.616555707455819	1.616555707455864	0.09905990102184954	-0.1745094759908202	0.3320565578026929	0.1091275751850809	0.3003163472396957	0.09469447513348485	1.108949452413165	-3.376166672640955	-0.003637064573293661	-0.5985457482677345	0.3699938412944025	-3.054765001040977	-3.054765001040986	-0.5491075147228244	0.0002731187649429521	-0.1702244815927861	-0.08149455230498458	-0.358210928684962	-0.00344750894403017	-0.02913195739981681	-0.4910080601731312	0.0974847764547717	0.04211177501779467	0.4591189378863788	-21.57215398963058	-9.41036130841362	-4.781355125567574	-3.689893746530674	-845.2630892180944	-81.28427550077056	-0.04168759080077118	1.42397511645032	1.192707280742593	1.723030877482253	-5.783444865204472	0.6493612804582497	-1.747137527618275	3.473402938417578	-9.158616632207586	-9.158616632207698	-1.221947626838732	0.033949273121591	-5.470925209847677	-1.823508035415677	-6.775667197822426e-07	2.789633345368287e-06	4.389372514272956e-06	1.501555836210624e-06	3.386985760196787e-07	5.986097458694311e-06	-4.186888696254477e-07
1.53	-0.01571721610013702	-0.06512563872651883	0.6319795574858571	1.391021856703194	-0.3152319367834758	0.00113192955921977	-0.928965654990644	1.585553976971215	1.585553976971262	0.09351325411698154	-0.1745070258525029	0.3300796861722243	0.1082203563367026	0.3144251160558869	0.1069859575079147	1.12499820827794	-3.432307173922436	0.002739295770797787	-0.6170034780989221	0.4056906064586752	-3.145261188542975	-3.145261188542947	-0.5600540930815716	0.0002199249556762132	-0.2252366041632054	-0.0999147834548834	-0.3498422938953488	-0.00213706873517623	-0.02764902122697721	-0.4799877104297606	0.09693333069402543	0.04318222762623588	0.4508612611383791	-20.7574878211448	-10.37963612894202	-4.213632751226084	-5.516055936767377	-832.1583779330906	-81.51923830487308	-0.04198659246992005	1.391811105336107	1.264361352712501	1.488376404805341	-5.449194420429003	0.6343560159690126	-1.900754156367963	3.668853162945958	-8.947051985186977	-8.947051985181371	-1.005828065905078	-0.0232852660607279	-5.529299827161421	-1.847239144410843	-6.822586520278287e-07	3.227119343095538e-06	4.735691049436669e-06	1.582903356948182e-06	3.483355852895617e-07	6.264425976266253e-06	-4.121291220240401e-07
1.54	-0.01250450870207375	-0.06399147879039395	0.6433002154485641	1.356431439762237	-0.3151722564192091	-0.005131342138648419	-0.9247217584573169	1.553656898176392	1.553656898176442	0.08786217840341543	-0.1745047739639004	0.3275501045067471	0.1071297434788986	0.3280332185173809	0.1199571453591138	1.138750102695921	-3.485241341636281	0.009218960298265202	-0.6356877457500681	0.4434289659235022	-3.233834663084619	-3.233834663084552	-0.5699932764608128	0.0002334688220124189	-0.2807664885945197	-0.1181733541901367	-0.3414736591057363	-0.0008266285263213773	-0.02616608505415421	-0.4689673606863909	0.09638188493327968	0.04425268023467893	0.4426035843903791	-19.9884824804332	-11.33772248523399	-3.651351883120455	-7.111253525485212	-819.570845377542	-81.8275572190161	-0.04231327540956852	1.32384184551088	1.328648376096438	1.263658588123315	-5.142178151677341	0.6700221171334456	-1.792445091609963	3.881721798528452	-8.774074040137018	-8.774074040136805	-1.02046863093754	0.04729680824217451	-5.574477582026683	-1.791175952486586	-6.6354824630467e-07	3.579382835129306e-06	4.897813890098361e-06	1.624825192896975e-06	3.551720083753064e-07	6.301832980568184e-06	-3.844215243125433e-07
1.55	-0.009158292638966864	-0.06272413968809967	0.6547466566780499	1.321327130748015	-0.315047505950177	-0.01158221806161287	-0.9200902376490184	1.52088436910507	1.520884369105057	0.08211606499912637	-0.1745025373112742	0.3244639862421743	0.1058578739271179	0.3411033771598431	0.1336296699582833	1.150125003347128	-3.535107648706656	0.01573743290975221	-0.6544920443309546	0.483241567063568	-3.32026763694045	-3.320267636940394	-0.5791078491757012	0.0002115780453871351	-0.3364116645851897	-0.136106123435457	-0.3323258340504721	7.450857338886801e-05	-0.02492184710605555	-0.4562570666104219	0.09625209187282836	0.04530192483341555	0.4334166592211026	-18.95069127191581	-12.34155367640442	-3.072751952306312	-9.246119080066391	-805.16372024098	-81.87009875242711	-0.04264120006147416	1.282572177671739	1.404727605697509	1.012506982910289	-4.832000873667099	0.6429405177666311	-1.925170868927278	4.085984970856113	-8.517321238769391	-8.517321238771096	-0.8385524336500045	-0.02608225758519451	-5.552607722785472	-1.781356876137977	-6.178742772696982e-07	3.833455179298848e-06	4.847711256659911e-06	1.621321783328281e-06	3.587816691184572e-07	6.061656502189465e-06	-3.323479253872493e-07
1.56	-0.005684581128622806	-0.06131644071903965	0.6662944671499058	1.285739529885299	-0.3148575346181078	-0.0182212866959067	-0.9150495996894974	1.487259627859097	1.48725962785902	0.07628248569930342	-0.1745003496138085	0.3208228021946553	0.1044092707897674	0.3535323079646182	0.1480291187122615	1.159023951169974	-3.581899711335014	0.02226313290565035	-0.673326288015812	0.5252523961680527	-3.404277098014812	-3.404277098014769	-0.587486455566009	0.0002236777899491249	-0.3917796451837924	-0.1535200713041066	-0.3231780089952082	0.00097564567310075	-0.02367760915797429	-0.4435467725344536	0.0961222988123777	0.04635116943215512	0.4242297340518258	-17.95428220614249	-13.3316882737068	-2.503714898472114	-11.17004801109417	-791.2008563415353	-81.98415052707989	-0.04299238388163256	1.195596277973466	1.474033207058164	0.7684680224513928	-4.527329263274011	0.671467594015675	-1.798434112404114	4.321367391412228	-8.289371483843102	-8.289371483843585	-0.8732753660213787	0.05409491247962386	-5.519038503613234	-1.687411677152452	-5.27036965287576e-07	4.025397648106247e-06	4.50140557548011e-06	1.575668683903949e-06	3.782449482017524e-07	5.526122538992009e-06	-2.362650312400585e-07
1.57	-0.002090171568016753	-0.0597612075449157	0.6779187070493615	1.249699174164221	-0.3146025688558727	-0.02504837041248157	-0.909578272237703	1.45280719789589	1.4528071978958	0.07036759461854444	-0.1744984599120116	0.3166300945217868	0.1027892223914451	0.3651832982823146	0.1631279112282739	1.165386089129642	-3.625631164116341	0.02873516838201925	-0.6921303847583072	0.569366672649028	-3.485757249914226	-3.48575724991433	-0.5953574727605192	0.0001556314068198303	-0.4466347027700891	-0.1703445501023538	-0.3126455841264572	0.001602785757524537	-0.0226285430902402	-0.4298848415538137	0.09674661509053105	0.04721807811421024	0.4134664649702856	-16.60963428489529	-14.28019944494382	-1.968042358474165	-13.3803546080395	-775.4308618733647	-81.78073782658319	-0.04334384118053091	1.124898266325588	1.544645682900639	0.5044837722329896	-4.215041671238312	0.6352280006466801	-1.927216704384441	4.509494545173742	-8.009590700788277	-8.009590700809888	-0.7234782165109023	-0.03618833788181466	-5.449516634762859	-1.659270076753892	-3.797454746215165e-07	4.139677772710971e-06	3.784846084623624e-06	1.477328472160071e-06	4.175252502102282e-07	4.621391719771135e-06	-8.517051806549721e-08
